<mxfile host="app.diagrams.net" agent="Mozilla/5.0 (Windows NT 10.0; Win64; x64) AppleWebKit/537.36 (KHTML, like Gecko) Chrome/133.0.0.0 Safari/537.36 OPR/118.0.0.0" version="27.0.6">
  <diagram name="Trang-1" id="XP94pzDCB3UdfFozU1aE">
    <mxGraphModel dx="3758" dy="771" grid="1" gridSize="10" guides="1" tooltips="1" connect="1" arrows="1" fold="1" page="0" pageScale="1" pageWidth="827" pageHeight="1169" background="none" math="0" shadow="0">
      <root>
        <mxCell id="0" />
        <mxCell id="1" parent="0" />
        <mxCell id="DCvQbMTqniBWGR8e3YSL-45" value="&lt;font style=&quot;font-size: 24px;&quot;&gt;resources&lt;/font&gt;" style="shape=folder;fontStyle=1;tabWidth=170;tabHeight=70;tabPosition=left;html=1;boundedLbl=1;labelInHeader=1;container=1;collapsible=0;whiteSpace=wrap;" vertex="1" parent="1">
          <mxGeometry x="-1070" y="550" width="580" height="440" as="geometry" />
        </mxCell>
        <mxCell id="DCvQbMTqniBWGR8e3YSL-46" value="" style="html=1;strokeColor=none;resizeWidth=1;resizeHeight=1;fillColor=none;part=1;connectable=0;allowArrows=0;deletable=0;whiteSpace=wrap;" vertex="1" parent="DCvQbMTqniBWGR8e3YSL-45">
          <mxGeometry width="580" height="308" relative="1" as="geometry">
            <mxPoint y="30" as="offset" />
          </mxGeometry>
        </mxCell>
        <mxCell id="DCvQbMTqniBWGR8e3YSL-47" value="&lt;font style=&quot;font-size: 18px;&quot;&gt;application&lt;/font&gt;" style="shape=folder;fontStyle=1;tabWidth=70;tabHeight=20;tabPosition=left;html=1;boundedLbl=1;whiteSpace=wrap;" vertex="1" parent="DCvQbMTqniBWGR8e3YSL-45">
          <mxGeometry x="47.346938775510196" y="118.91891891891892" width="171.81020408163266" height="86.27567567567567" as="geometry" />
        </mxCell>
        <mxCell id="DCvQbMTqniBWGR8e3YSL-48" value="&lt;font style=&quot;font-size: 18px;&quot;&gt;data&lt;/font&gt;" style="shape=folder;fontStyle=1;tabWidth=70;tabHeight=20;tabPosition=left;html=1;boundedLbl=1;whiteSpace=wrap;" vertex="1" parent="DCvQbMTqniBWGR8e3YSL-45">
          <mxGeometry x="355.1020408163265" y="130.8108108108108" width="171.81020408163266" height="86.27567567567567" as="geometry" />
        </mxCell>
        <mxCell id="DCvQbMTqniBWGR8e3YSL-49" value="&lt;font style=&quot;font-size: 18px;&quot;&gt;static&lt;/font&gt;" style="shape=folder;fontStyle=1;tabWidth=70;tabHeight=20;tabPosition=left;html=1;boundedLbl=1;whiteSpace=wrap;" vertex="1" parent="DCvQbMTqniBWGR8e3YSL-45">
          <mxGeometry x="47.3469387755102" y="297.2972972972973" width="171.81020408163266" height="86.27567567567567" as="geometry" />
        </mxCell>
        <mxCell id="DCvQbMTqniBWGR8e3YSL-50" value="&lt;font style=&quot;font-size: 18px;&quot;&gt;templates&lt;/font&gt;" style="shape=folder;fontStyle=1;tabWidth=70;tabHeight=20;tabPosition=left;html=1;boundedLbl=1;whiteSpace=wrap;" vertex="1" parent="DCvQbMTqniBWGR8e3YSL-45">
          <mxGeometry x="340.0020408163265" y="297.29918918918924" width="171.81020408163266" height="86.27567567567567" as="geometry" />
        </mxCell>
        <mxCell id="DCvQbMTqniBWGR8e3YSL-83" value="&lt;span style=&quot;font-size: 24px;&quot;&gt;Config&lt;/span&gt;" style="shape=folder;fontStyle=1;tabWidth=170;tabHeight=70;tabPosition=left;html=1;boundedLbl=1;labelInHeader=1;container=1;collapsible=0;whiteSpace=wrap;" vertex="1" parent="1">
          <mxGeometry x="-330" y="690" width="520" height="400" as="geometry" />
        </mxCell>
        <mxCell id="DCvQbMTqniBWGR8e3YSL-84" value="" style="html=1;strokeColor=none;resizeWidth=1;resizeHeight=1;fillColor=none;part=1;connectable=0;allowArrows=0;deletable=0;whiteSpace=wrap;" vertex="1" parent="DCvQbMTqniBWGR8e3YSL-83">
          <mxGeometry width="520" height="280" relative="1" as="geometry">
            <mxPoint y="30" as="offset" />
          </mxGeometry>
        </mxCell>
        <mxCell id="DCvQbMTqniBWGR8e3YSL-85" value="&lt;span style=&quot;font-size: 18px;&quot;&gt;WebMvcConfig&lt;/span&gt;" style="shape=folder;fontStyle=1;tabWidth=70;tabHeight=20;tabPosition=left;html=1;boundedLbl=1;whiteSpace=wrap;" vertex="1" parent="DCvQbMTqniBWGR8e3YSL-83">
          <mxGeometry x="42.45" y="108.11" width="167.55" height="91.89" as="geometry" />
        </mxCell>
        <mxCell id="DCvQbMTqniBWGR8e3YSL-86" value="&lt;span style=&quot;font-size: 18px;&quot;&gt;SecurityConfig&lt;/span&gt;" style="shape=folder;fontStyle=1;tabWidth=70;tabHeight=20;tabPosition=left;html=1;boundedLbl=1;whiteSpace=wrap;" vertex="1" parent="DCvQbMTqniBWGR8e3YSL-83">
          <mxGeometry x="318.37" y="118.92" width="171.63" height="91.08" as="geometry" />
        </mxCell>
        <mxCell id="DCvQbMTqniBWGR8e3YSL-87" value="&lt;span style=&quot;font-size: 18px;&quot;&gt;DatabaseConfig&lt;/span&gt;" style="shape=folder;fontStyle=1;tabWidth=70;tabHeight=20;tabPosition=left;html=1;boundedLbl=1;whiteSpace=wrap;" vertex="1" parent="DCvQbMTqniBWGR8e3YSL-83">
          <mxGeometry x="164.33" y="273.17" width="175.67" height="96.83" as="geometry" />
        </mxCell>
        <mxCell id="DCvQbMTqniBWGR8e3YSL-89" value="&lt;span style=&quot;font-size: 24px;&quot;&gt;Controller&lt;/span&gt;" style="shape=folder;fontStyle=1;tabWidth=170;tabHeight=70;tabPosition=left;html=1;boundedLbl=1;labelInHeader=1;container=1;collapsible=0;whiteSpace=wrap;" vertex="1" parent="1">
          <mxGeometry x="-1000" y="1090" width="520" height="250" as="geometry" />
        </mxCell>
        <mxCell id="DCvQbMTqniBWGR8e3YSL-90" value="" style="html=1;strokeColor=none;resizeWidth=1;resizeHeight=1;fillColor=none;part=1;connectable=0;allowArrows=0;deletable=0;whiteSpace=wrap;" vertex="1" parent="DCvQbMTqniBWGR8e3YSL-89">
          <mxGeometry width="520" height="175" relative="1" as="geometry">
            <mxPoint y="30" as="offset" />
          </mxGeometry>
        </mxCell>
        <mxCell id="DCvQbMTqniBWGR8e3YSL-91" value="&lt;span style=&quot;font-size: 18px;&quot;&gt;UserController&lt;/span&gt;" style="shape=folder;fontStyle=1;tabWidth=70;tabHeight=20;tabPosition=left;html=1;boundedLbl=1;whiteSpace=wrap;" vertex="1" parent="DCvQbMTqniBWGR8e3YSL-89">
          <mxGeometry x="30" y="100" width="210" height="100" as="geometry" />
        </mxCell>
        <mxCell id="DCvQbMTqniBWGR8e3YSL-94" value="&lt;span style=&quot;font-size: 18px;&quot;&gt;ProductController&lt;/span&gt;" style="shape=folder;fontStyle=1;tabWidth=70;tabHeight=20;tabPosition=left;html=1;boundedLbl=1;whiteSpace=wrap;" vertex="1" parent="DCvQbMTqniBWGR8e3YSL-89">
          <mxGeometry x="280" y="100" width="210" height="100" as="geometry" />
        </mxCell>
        <mxCell id="DCvQbMTqniBWGR8e3YSL-95" value="&lt;span style=&quot;font-size: 24px;&quot;&gt;Service&lt;/span&gt;" style="shape=folder;fontStyle=1;tabWidth=170;tabHeight=70;tabPosition=left;html=1;boundedLbl=1;labelInHeader=1;container=1;collapsible=0;whiteSpace=wrap;" vertex="1" parent="1">
          <mxGeometry x="-280" y="1160" width="520" height="250" as="geometry" />
        </mxCell>
        <mxCell id="DCvQbMTqniBWGR8e3YSL-96" value="" style="html=1;strokeColor=none;resizeWidth=1;resizeHeight=1;fillColor=none;part=1;connectable=0;allowArrows=0;deletable=0;whiteSpace=wrap;" vertex="1" parent="DCvQbMTqniBWGR8e3YSL-95">
          <mxGeometry width="520" height="175" relative="1" as="geometry">
            <mxPoint y="30" as="offset" />
          </mxGeometry>
        </mxCell>
        <mxCell id="DCvQbMTqniBWGR8e3YSL-97" value="&lt;span style=&quot;font-size: 18px;&quot;&gt;UserService&lt;/span&gt;" style="shape=folder;fontStyle=1;tabWidth=70;tabHeight=20;tabPosition=left;html=1;boundedLbl=1;whiteSpace=wrap;" vertex="1" parent="DCvQbMTqniBWGR8e3YSL-95">
          <mxGeometry x="30" y="100" width="210" height="100" as="geometry" />
        </mxCell>
        <mxCell id="DCvQbMTqniBWGR8e3YSL-98" value="&lt;span style=&quot;font-size: 18px;&quot;&gt;ProductService&lt;/span&gt;" style="shape=folder;fontStyle=1;tabWidth=70;tabHeight=20;tabPosition=left;html=1;boundedLbl=1;whiteSpace=wrap;" vertex="1" parent="DCvQbMTqniBWGR8e3YSL-95">
          <mxGeometry x="280" y="100" width="210" height="100" as="geometry" />
        </mxCell>
        <mxCell id="DCvQbMTqniBWGR8e3YSL-104" value="&lt;span style=&quot;font-size: 24px;&quot;&gt;Repository&lt;/span&gt;" style="shape=folder;fontStyle=1;tabWidth=170;tabHeight=70;tabPosition=left;html=1;boundedLbl=1;labelInHeader=1;container=1;collapsible=0;whiteSpace=wrap;" vertex="1" parent="1">
          <mxGeometry x="-500" y="1430" width="520" height="250" as="geometry" />
        </mxCell>
        <mxCell id="DCvQbMTqniBWGR8e3YSL-105" value="" style="html=1;strokeColor=none;resizeWidth=1;resizeHeight=1;fillColor=none;part=1;connectable=0;allowArrows=0;deletable=0;whiteSpace=wrap;" vertex="1" parent="DCvQbMTqniBWGR8e3YSL-104">
          <mxGeometry width="520" height="175" relative="1" as="geometry">
            <mxPoint y="30" as="offset" />
          </mxGeometry>
        </mxCell>
        <mxCell id="DCvQbMTqniBWGR8e3YSL-106" value="&lt;span style=&quot;font-size: 18px;&quot;&gt;UserRepository&lt;/span&gt;" style="shape=folder;fontStyle=1;tabWidth=70;tabHeight=20;tabPosition=left;html=1;boundedLbl=1;whiteSpace=wrap;" vertex="1" parent="DCvQbMTqniBWGR8e3YSL-104">
          <mxGeometry x="30" y="100" width="210" height="100" as="geometry" />
        </mxCell>
        <mxCell id="DCvQbMTqniBWGR8e3YSL-107" value="&lt;span style=&quot;font-size: 18px;&quot;&gt;ProductRepository&lt;/span&gt;" style="shape=folder;fontStyle=1;tabWidth=70;tabHeight=20;tabPosition=left;html=1;boundedLbl=1;whiteSpace=wrap;" vertex="1" parent="DCvQbMTqniBWGR8e3YSL-104">
          <mxGeometry x="280" y="100" width="210" height="100" as="geometry" />
        </mxCell>
        <mxCell id="DCvQbMTqniBWGR8e3YSL-108" value="&lt;span style=&quot;font-size: 24px;&quot;&gt;Domain&lt;/span&gt;" style="shape=folder;fontStyle=1;tabWidth=170;tabHeight=70;tabPosition=left;html=1;boundedLbl=1;labelInHeader=1;container=1;collapsible=0;whiteSpace=wrap;" vertex="1" parent="1">
          <mxGeometry x="-270" y="1730" width="520" height="250" as="geometry" />
        </mxCell>
        <mxCell id="DCvQbMTqniBWGR8e3YSL-109" value="" style="html=1;strokeColor=none;resizeWidth=1;resizeHeight=1;fillColor=none;part=1;connectable=0;allowArrows=0;deletable=0;whiteSpace=wrap;" vertex="1" parent="DCvQbMTqniBWGR8e3YSL-108">
          <mxGeometry width="520" height="175" relative="1" as="geometry">
            <mxPoint y="30" as="offset" />
          </mxGeometry>
        </mxCell>
        <mxCell id="DCvQbMTqniBWGR8e3YSL-110" value="&lt;span style=&quot;font-size: 18px;&quot;&gt;UserEntity&lt;/span&gt;" style="shape=folder;fontStyle=1;tabWidth=70;tabHeight=20;tabPosition=left;html=1;boundedLbl=1;whiteSpace=wrap;" vertex="1" parent="DCvQbMTqniBWGR8e3YSL-108">
          <mxGeometry x="30" y="100" width="210" height="100" as="geometry" />
        </mxCell>
        <mxCell id="DCvQbMTqniBWGR8e3YSL-111" value="&lt;span style=&quot;font-size: 18px;&quot;&gt;ProductEntity&lt;/span&gt;" style="shape=folder;fontStyle=1;tabWidth=70;tabHeight=20;tabPosition=left;html=1;boundedLbl=1;whiteSpace=wrap;" vertex="1" parent="DCvQbMTqniBWGR8e3YSL-108">
          <mxGeometry x="280" y="100" width="210" height="100" as="geometry" />
        </mxCell>
        <mxCell id="DCvQbMTqniBWGR8e3YSL-112" value="" style="html=1;verticalAlign=bottom;labelBackgroundColor=none;endArrow=block;endFill=1;dashed=1;rounded=0;exitX=1.001;exitY=0.657;exitDx=0;exitDy=0;exitPerimeter=0;entryX=0;entryY=0;entryDx=0;entryDy=152.5;entryPerimeter=0;shadow=1;" edge="1" parent="1" source="DCvQbMTqniBWGR8e3YSL-45" target="DCvQbMTqniBWGR8e3YSL-83">
          <mxGeometry width="160" relative="1" as="geometry">
            <mxPoint x="-440" y="810" as="sourcePoint" />
            <mxPoint x="-280" y="810" as="targetPoint" />
          </mxGeometry>
        </mxCell>
        <mxCell id="DCvQbMTqniBWGR8e3YSL-113" value="" style="html=1;verticalAlign=bottom;labelBackgroundColor=none;endArrow=block;endFill=1;dashed=1;rounded=0;entryX=1;entryY=0.841;entryDx=0;entryDy=0;entryPerimeter=0;" edge="1" parent="1" target="DCvQbMTqniBWGR8e3YSL-45">
          <mxGeometry width="160" relative="1" as="geometry">
            <mxPoint x="-340" y="920" as="sourcePoint" />
            <mxPoint x="-241" y="844" as="targetPoint" />
          </mxGeometry>
        </mxCell>
        <mxCell id="DCvQbMTqniBWGR8e3YSL-114" value="" style="html=1;verticalAlign=bottom;labelBackgroundColor=none;endArrow=block;endFill=1;dashed=1;rounded=0;exitX=0.004;exitY=0.863;exitDx=0;exitDy=0;exitPerimeter=0;entryX=0.609;entryY=0.303;entryDx=0;entryDy=0;entryPerimeter=0;" edge="1" parent="1" source="DCvQbMTqniBWGR8e3YSL-83" target="DCvQbMTqniBWGR8e3YSL-89">
          <mxGeometry width="160" relative="1" as="geometry">
            <mxPoint x="-260" y="1000" as="sourcePoint" />
            <mxPoint x="-700" y="1035" as="targetPoint" />
            <Array as="points">
              <mxPoint x="-683" y="1035" />
            </Array>
          </mxGeometry>
        </mxCell>
        <mxCell id="DCvQbMTqniBWGR8e3YSL-115" value="" style="html=1;verticalAlign=bottom;labelBackgroundColor=none;endArrow=block;endFill=1;dashed=1;rounded=0;entryX=0.715;entryY=0.141;entryDx=0;entryDy=0;entryPerimeter=0;exitX=0.368;exitY=0.988;exitDx=0;exitDy=0;exitPerimeter=0;" edge="1" parent="1" source="DCvQbMTqniBWGR8e3YSL-89" target="DCvQbMTqniBWGR8e3YSL-121">
          <mxGeometry width="160" relative="1" as="geometry">
            <mxPoint x="-845" y="1341" as="sourcePoint" />
            <mxPoint x="-815" y="1480" as="targetPoint" />
            <Array as="points" />
          </mxGeometry>
        </mxCell>
        <mxCell id="DCvQbMTqniBWGR8e3YSL-116" value="" style="html=1;verticalAlign=bottom;labelBackgroundColor=none;endArrow=block;endFill=1;dashed=1;rounded=0;entryX=0;entryY=0;entryDx=0;entryDy=115;entryPerimeter=0;exitX=1;exitY=0.74;exitDx=0;exitDy=0;exitPerimeter=0;" edge="1" parent="1" source="DCvQbMTqniBWGR8e3YSL-89" target="DCvQbMTqniBWGR8e3YSL-95">
          <mxGeometry width="160" relative="1" as="geometry">
            <mxPoint x="-476" y="1270" as="sourcePoint" />
            <mxPoint x="-284" y="1290" as="targetPoint" />
            <Array as="points" />
          </mxGeometry>
        </mxCell>
        <mxCell id="DCvQbMTqniBWGR8e3YSL-117" value="" style="html=1;verticalAlign=bottom;labelBackgroundColor=none;endArrow=block;endFill=1;dashed=1;rounded=0;entryX=0.795;entryY=0.297;entryDx=0;entryDy=0;entryPerimeter=0;exitX=0.807;exitY=1.016;exitDx=0;exitDy=0;exitPerimeter=0;" edge="1" parent="1" source="DCvQbMTqniBWGR8e3YSL-95" target="DCvQbMTqniBWGR8e3YSL-108">
          <mxGeometry width="160" relative="1" as="geometry">
            <mxPoint x="260" y="1460" as="sourcePoint" />
            <mxPoint x="460" y="1460" as="targetPoint" />
            <Array as="points" />
          </mxGeometry>
        </mxCell>
        <mxCell id="DCvQbMTqniBWGR8e3YSL-118" value="" style="html=1;verticalAlign=bottom;labelBackgroundColor=none;endArrow=block;endFill=1;dashed=1;rounded=0;entryX=0;entryY=0;entryDx=345;entryDy=70;entryPerimeter=0;" edge="1" parent="1" target="DCvQbMTqniBWGR8e3YSL-104">
          <mxGeometry width="160" relative="1" as="geometry">
            <mxPoint x="-155" y="1410" as="sourcePoint" />
            <mxPoint x="163" y="1920" as="targetPoint" />
            <Array as="points" />
          </mxGeometry>
        </mxCell>
        <mxCell id="DCvQbMTqniBWGR8e3YSL-121" value="&lt;font style=&quot;font-size: 24px;&quot;&gt;View&lt;/font&gt;" style="shape=folder;fontStyle=1;tabWidth=80;tabHeight=20;tabPosition=left;html=1;boundedLbl=1;whiteSpace=wrap;" vertex="1" parent="1">
          <mxGeometry x="-980" y="1470" width="240" height="120" as="geometry" />
        </mxCell>
      </root>
    </mxGraphModel>
  </diagram>
</mxfile>
